<?xml version="1.0" standalone="no"?>
<!DOCTYPE svg PUBLIC "-//W3C//DTD SVG 20010904//EN"
 "http://www.w3.org/TR/2001/REC-SVG-20010904/DTD/svg10.dtd">
<svg version="1.0" xmlns="http://www.w3.org/2000/svg"
 width="405.000000pt" height="640.000000pt" viewBox="0 0 405.000000 640.000000"
 preserveAspectRatio="xMidYMid meet">

<g transform="translate(0.000000,640.000000) scale(0.100000,-0.100000)"
fill="#000000" stroke="none">
<path d="M0 4705 c0 -1609 1 -1694 18 -1689 16 5 16 5 -1 -9 -16 -13 -17 -49
-17 -491 0 -343 3 -476 11 -476 11 0 296 48 329 55 8 2 19 4 23 4 5 1 5 6 1
13 -5 8 5 9 39 5 27 -4 79 0 124 8 113 21 313 44 329 38 8 -3 15 2 15 11 2 27
3 30 27 68 29 46 52 57 52 23 0 -13 5 -27 10 -30 6 -3 10 -11 10 -16 0 -6 -4
-7 -10 -4 -5 3 -10 -3 -10 -15 0 -21 2 -22 118 -16 64 3 207 8 317 11 258 8
305 16 349 60 30 29 38 33 63 26 15 -4 34 -6 41 -4 7 3 10 -1 6 -11 -4 -12 0
-16 15 -16 12 0 21 5 21 11 0 6 7 9 15 5 9 -3 15 0 15 10 0 11 6 14 16 10 9
-3 17 -6 19 -6 2 0 1 -9 -2 -19 -4 -16 5 -21 66 -35 42 -10 116 -16 185 -16
74 0 116 -4 116 -10 0 -12 72 -2 80 11 6 9 338 18 996 28 428 6 453 7 473 25
13 12 39 21 67 22 25 2 54 6 65 9 13 4 19 2 19 -8 0 -8 9 -22 21 -32 l20 -19
-3 224 c-2 124 -7 234 -12 244 -7 14 -6 17 2 12 9 -5 12 4 11 31 -1 37 -2 37
-8 8 l-7 -30 -7 30 c-3 17 -9 47 -13 68 -5 27 -9 35 -15 25 -8 -12 -10 -11
-13 12 -1 14 -28 30 -38 24 -19 -12 -20 30 -2 44 13 9 15 16 7 19 -7 2 -9 12
-6 21 4 14 3 14 -5 3 -6 -8 -8 -19 -6 -26 3 -6 -3 -18 -12 -26 -13 -10 -16
-11 -10 -1 5 9 1 15 -13 19 -12 3 -24 16 -27 28 -4 15 -11 21 -22 18 -27 -6
-57 21 -48 43 8 18 8 18 16 -1 7 -15 9 -16 9 -4 1 9 -11 24 -25 34 l-26 17 4
-56 c2 -31 1 -56 -4 -56 -4 0 -8 19 -8 43 0 23 -4 47 -8 54 -12 20 -47 4 -61
-28 -16 -36 -31 -38 -31 -4 0 14 -4 25 -9 25 -13 0 -32 -26 -24 -34 4 -4 -3
-9 -15 -13 -12 -3 -20 -8 -18 -12 3 -4 -4 -8 -15 -8 -20 -2 -26 13 -8 19 8 3
9 13 4 28 l-8 24 -14 -28 c-10 -19 -12 -35 -6 -48 10 -23 87 -53 162 -63 49
-7 51 -6 52 17 0 21 1 22 8 3 5 -11 7 -23 5 -26 -2 -4 10 -12 26 -19 30 -12
56 -37 48 -45 -2 -2 -47 6 -99 19 -51 13 -139 34 -194 46 -55 12 -108 24 -119
27 -12 3 -16 1 -11 -6 5 -9 -7 -10 -43 -5 l-51 6 4 -58 c1 -33 3 -64 4 -69 1
-6 10 -11 21 -12 21 -2 23 10 10 62 -7 29 -8 29 -10 -10 l-2 -40 -9 34 c-9 28
-7 36 9 52 23 20 59 15 66 -10 3 -9 4 -38 3 -64 -2 -26 0 -50 5 -53 13 -8 -2
-26 -17 -20 -11 4 -13 -21 -9 -135 6 -173 -10 -186 -21 -16 -8 115 -12 176
-14 187 -1 2 -6 -1 -13 -8 -10 -10 -19 -4 -45 25 -32 35 -33 36 -34 12 l0 -24
-11 23 c-6 12 -14 22 -19 22 -7 0 -20 -63 -17 -90 0 -8 0 -28 -1 -45 -1 -23
-4 -26 -11 -15 -8 12 -10 12 -15 -2 -4 -10 -3 -23 1 -30 5 -7 9 -30 10 -50 1
-21 7 -44 13 -52 9 -10 8 -15 -2 -19 -17 -6 -19 -59 -3 -69 7 -5 5 -8 -6 -8
-12 0 -18 8 -19 23 -1 12 -3 31 -4 42 -2 11 -6 64 -11 118 -7 95 -6 98 14 104
15 3 22 13 22 29 0 25 -14 32 -25 14 -9 -15 -25 -2 -19 15 8 21 -6 41 -17 24
-6 -10 -8 -7 -6 9 0 12 5 22 9 22 4 0 8 5 8 11 0 5 -4 7 -10 4 -5 -3 -10 1
-10 10 0 9 -5 13 -11 9 -6 -3 -15 0 -20 7 -6 10 -9 6 -9 -15 0 -24 -2 -27 -15
-16 -12 10 -15 9 -15 -5 0 -15 -2 -15 -16 -4 -13 11 -14 9 -8 -16 5 -20 4 -26
-5 -21 -6 4 -11 13 -11 20 0 7 -10 22 -23 34 l-23 22 -2 -28 c-1 -15 -2 -46
-2 -69 0 -30 -4 -43 -14 -43 -10 0 -16 18 -20 63 -4 34 -9 80 -13 102 l-5 39
-24 -28 c-13 -15 -28 -25 -33 -22 -10 6 -22 65 -22 111 -1 17 -3 24 -6 17 -2
-6 -8 -10 -13 -7 -5 3 -11 -4 -15 -15 -8 -25 -20 -26 -23 -2 -14 111 -15 118
-22 87 l-6 -30 -23 35 c-18 28 -21 30 -15 10 4 -14 15 -36 25 -49 22 -28 24
-42 6 -35 -16 6 -42 -92 -32 -118 5 -12 1 -14 -19 -11 -23 5 -24 8 -20 52 3
25 7 56 9 68 3 12 1 25 -5 28 -5 3 -10 15 -10 26 0 10 -4 19 -8 19 -4 0 -8
-27 -7 -60 0 -33 -3 -60 -7 -60 -5 0 -8 9 -8 19 0 11 -4 23 -10 26 -6 4 -8 -6
-6 -24 4 -39 -18 -61 -33 -33 -6 11 -6 23 -1 28 4 5 10 20 12 34 2 17 8 24 21
22 25 -4 21 13 -7 26 -14 6 -26 21 -28 34 -4 20 -6 19 -15 -12 l-11 -35 -1 43
c-1 34 -4 42 -20 42 -10 0 -24 7 -31 15 -16 20 -70 20 -70 0 0 -7 8 -19 18
-24 9 -6 12 -11 5 -11 -6 0 -14 -19 -18 -41 -5 -29 -10 -38 -16 -28 -6 10 -9
6 -9 -13 0 -37 -16 -44 -28 -11 -9 23 -11 24 -12 8 -1 -11 -2 -31 -1 -45 0
-21 -2 -20 -13 10 -8 19 -15 50 -15 68 -1 17 -4 32 -8 32 -11 0 -10 -187 1
-197 5 -5 6 -3 2 5 -4 7 -1 12 8 12 8 0 17 6 19 13 3 6 6 2 6 -10 1 -13 -3
-23 -9 -23 -5 0 -10 -7 -10 -15 0 -8 -6 -15 -12 -15 -9 0 -9 -3 -3 -8 10 -6
11 -15 6 -39 -1 -5 -5 -3 -9 4 -5 8 -12 9 -22 2 -13 -8 -13 -10 0 -18 11 -8
15 -38 17 -133 2 -83 -1 -118 -7 -108 -6 8 -9 34 -8 57 1 24 -1 46 -5 49 -8 8
-8 -6 -9 -179 -1 -65 -5 -120 -10 -123 -4 -3 -8 1 -8 8 0 11 -2 11 -9 0 -5 -9
-10 8 -14 46 -4 32 -9 67 -13 78 -5 16 -4 17 5 4 9 -12 11 -8 7 19 -3 19 -10
37 -16 41 -8 5 -8 15 0 35 8 22 8 30 -2 36 -20 12 -22 4 -20 -84 0 -51 -2 -74
-7 -62 -5 11 -6 24 -3 29 3 5 -5 7 -16 4 -19 -5 -22 -2 -24 25 0 18 -1 39 0
47 3 32 -6 40 -35 30 -26 -10 -28 -13 -24 -56 2 -32 0 -44 -8 -40 -6 4 -11 32
-11 62 0 30 -4 54 -10 54 -5 0 -10 -9 -10 -21 0 -11 -5 -17 -10 -14 -6 4 -8
10 -5 15 3 5 0 12 -7 16 -7 4 -10 4 -6 -1 4 -4 4 -13 -1 -19 -13 -17 -22 -76
-11 -76 6 0 10 -12 10 -27 0 -24 -3 -22 -24 21 -21 44 -25 47 -28 25 l-5 -24
-11 25 c-10 23 -11 21 -13 -25 l-2 -50 -6 45 c-3 25 -10 43 -16 40 -5 -3 -12
9 -15 25 -3 17 -8 25 -12 19 -11 -16 2 -52 20 -60 14 -6 13 -8 -7 -13 -16 -4
-29 -19 -37 -41 -12 -34 -13 -32 -15 45 -2 44 -3 96 -4 115 -1 19 4 40 11 47
7 7 10 23 8 36 -6 26 -7 30 -2 77 2 19 14 55 25 80 12 25 24 67 28 94 7 47 8
48 21 25 12 -22 13 -20 15 31 1 30 1 58 0 63 -1 8 53 67 61 67 3 0 9 -12 13
-27 4 -16 9 -23 12 -17 2 6 -1 23 -6 37 l-10 26 -68 -39 c-70 -41 -150 -103
-262 -204 -48 -43 -67 -54 -69 -43 -3 12 -8 14 -25 7 -12 -5 -34 -11 -49 -14
-16 -4 -27 -10 -27 -14 3 -19 -2 -23 -15 -13 -11 9 -62 0 -227 -43 -118 -30
-222 -58 -231 -61 -10 -4 -18 -4 -18 -1 0 13 37 42 48 38 6 -2 64 13 129 33
65 20 156 47 203 61 93 27 199 62 213 71 4 2 2 12 -5 21 -11 13 -10 14 7 5 42
-22 96 10 125 74 l18 41 -26 43 c-21 36 -26 40 -32 24 -5 -14 -9 -16 -15 -6
-4 8 -2 17 6 21 9 6 10 12 2 22 -14 17 -53 108 -47 108 3 0 14 -21 26 -47 11
-25 36 -68 56 -96 35 -49 35 -49 48 -25 16 28 18 74 4 83 -5 3 -10 12 -10 18
0 7 9 1 19 -12 l18 -23 13 33 c14 37 117 199 126 199 7 0 -48 -98 -67 -119
-25 -27 -32 -58 -15 -64 8 -3 16 2 19 14 3 11 9 18 14 17 4 -2 9 1 10 5 1 5 9
14 19 21 11 9 15 22 12 39 -3 18 1 33 15 48 16 17 27 20 60 15 34 -6 38 -5 28
8 -10 12 -9 14 8 9 12 -3 21 -9 21 -14 0 -18 30 -8 45 15 13 19 14 29 6 45
-11 20 2 40 14 21 10 -16 25 -12 19 5 -4 8 1 17 10 21 11 4 15 14 11 31 -6 34
-10 37 -33 24 -17 -9 -19 -8 -15 9 4 15 11 19 25 14 15 -4 19 -2 16 13 -2 13
2 17 15 15 15 -3 17 1 12 18 -6 19 -4 21 14 15 18 -5 23 -1 32 24 11 32 42 43
53 19 3 -7 3 -3 0 10 -4 15 -1 22 10 22 8 0 20 9 26 20 6 11 17 20 25 20 8 0
13 9 12 24 -1 14 2 24 7 23 5 -1 13 9 17 22 6 15 14 21 24 17 8 -3 15 -1 15 4
0 6 6 10 13 10 7 0 21 11 31 25 11 14 25 24 32 21 7 -3 22 9 35 25 12 16 28
29 34 29 7 0 18 7 25 15 7 8 23 15 35 15 13 0 26 6 29 13 4 8 8 9 11 1 4 -8
17 -9 43 -3 20 5 54 9 75 9 22 0 37 5 37 12 0 9 3 9 11 1 7 -7 20 -8 38 -2 49
16 238 39 357 43 66 3 127 8 137 11 9 4 25 1 34 -6 12 -10 15 -10 9 -1 -9 15
6 16 21 1 16 -16 33 -2 33 27 l0 26 -35 -22 c-19 -12 -35 -17 -35 -12 0 6 -8
12 -17 14 -31 7 77 49 144 57 54 6 61 5 50 -7 -10 -13 -6 -14 32 -9 24 3 47 9
50 14 5 7 26 9 41 4 3 -1 38 -4 78 -6 86 -5 115 -12 109 -28 -3 -7 -9 -11 -15
-10 -21 5 -82 -28 -82 -43 0 -13 7 -15 35 -11 19 3 37 2 40 -2 2 -5 16 -7 30
-5 22 2 25 -1 19 -18 -6 -19 -5 -19 20 -3 14 9 30 14 36 10 6 -3 10 3 10 14 0
18 -6 21 -50 21 -27 0 -50 4 -50 9 0 14 49 50 77 57 l23 6 0 1099 0 1099
-2025 0 -2025 0 0 -1695z m3077 1413 c-2 -13 -4 -3 -4 22 0 25 2 35 4 23 2
-13 2 -33 0 -45z m-2530 -10 c-2 -13 -4 -3 -4 22 0 25 2 35 4 23 2 -13 2 -33
0 -45z m940 0 c-2 -13 -4 -3 -4 22 0 25 2 35 4 23 2 -13 2 -33 0 -45z m561 26
c-3 -14 -5 -12 -10 9 -3 19 -2 25 4 19 6 -6 8 -18 6 -28z m92 1 c19 -19 32
-35 29 -35 -3 0 -20 16 -39 35 -19 19 -32 35 -29 35 3 0 20 -16 39 -35z m455
15 c10 -11 14 -20 9 -20 -5 0 -15 9 -22 20 -7 11 -11 20 -9 20 2 0 12 -9 22
-20z m808 -16 c37 -44 30 -44 -13 1 -19 19 -30 35 -24 34 5 0 22 -16 37 -35z
m-582 -1 c13 -16 12 -17 -3 -4 -10 7 -18 15 -18 17 0 8 8 3 21 -13z m-1521
-38 c0 -5 -5 -3 -10 5 -5 8 -10 20 -10 25 0 6 5 3 10 -5 5 -8 10 -19 10 -25z
m417 3 c-3 -7 -5 -2 -5 12 0 14 2 19 5 13 2 -7 2 -19 0 -25z m267 16 c3 -8 2
-12 -4 -9 -6 3 -10 10 -10 16 0 14 7 11 14 -7z m-246 -454 c3 -44 -6 -51 -26
-20 -10 16 -23 20 -67 20 l-55 0 0 -174 c0 -186 7 -226 40 -226 11 0 20 -4 20
-9 0 -11 -168 -12 -175 -1 -3 4 4 10 14 13 16 4 19 19 25 98 8 98 7 237 -1
277 -5 20 -11 22 -64 22 -48 0 -60 -4 -73 -22 -16 -22 -16 -22 -16 9 0 60 -6
58 193 56 l182 -2 3 -41z m532 41 c0 -5 -9 -11 -20 -14 -19 -5 -20 -14 -20
-204 0 -208 3 -222 45 -224 11 -1 2 -5 -20 -8 -42 -6 -163 -1 -133 6 24 6 29
33 26 133 l-3 85 -85 3 c-127 4 -130 3 -129 -66 1 -106 11 -145 39 -153 24 -7
24 -7 3 -9 -60 -4 -155 -2 -160 4 -4 3 1 6 10 6 32 0 38 36 35 227 l-3 187
-25 13 c-22 11 -14 13 65 12 60 0 83 -3 69 -9 -27 -11 -30 -21 -33 -102 -2
-57 0 -67 16 -71 30 -8 177 -7 191 2 9 5 12 30 10 87 -3 75 -4 79 -28 84 -14
3 13 7 60 11 47 3 86 6 88 7 1 1 2 -2 2 -7z m370 -37 c0 -27 -4 -43 -10 -39
-5 3 -10 12 -10 20 0 17 -23 25 -76 25 l-44 0 0 -81 0 -81 65 4 65 4 0 -46 c0
-44 -1 -45 -18 -24 -21 27 -52 37 -86 28 -25 -6 -26 -9 -26 -83 0 -42 4 -82 8
-88 10 -15 115 -20 119 -6 2 6 10 19 18 29 13 18 14 16 15 -18 0 -53 -21 -69
-83 -64 -29 3 -86 5 -127 6 -62 1 -71 3 -52 12 22 11 22 12 20 217 l-3 206
-25 5 c-14 3 31 7 100 10 69 3 131 7 138 8 8 1 12 -13 12 -44z m-1866 -384
c25 -9 26 -13 26 -84 0 -78 -16 -111 -27 -56 -3 17 -20 47 -38 66 -29 30 -38
34 -84 34 -45 0 -57 -4 -82 -29 -57 -57 -37 -116 73 -212 135 -117 168 -165
176 -254 6 -77 -13 -130 -63 -180 -38 -36 -54 -45 -110 -55 -69 -13 -137 -8
-192 15 -33 14 -33 15 -33 82 0 117 18 146 39 66 20 -79 59 -113 130 -113 78
0 124 43 124 115 0 58 -30 103 -119 176 -110 89 -154 163 -154 257 0 63 34
118 95 153 44 25 60 29 132 29 45 0 93 -4 107 -10z m1328 -186 c25 -65 76
-198 113 -294 79 -208 94 -235 141 -250 57 -19 28 -30 -82 -30 -94 0 -122 7
-95 25 8 4 -23 111 -54 188 -6 14 -21 17 -105 17 l-98 0 -27 -74 c-15 -40 -25
-86 -23 -102 2 -25 7 -29 30 -27 20 1 25 -2 21 -13 -4 -11 -29 -14 -114 -14
-68 0 -109 4 -109 10 0 6 13 13 29 16 16 3 38 18 48 33 11 14 64 143 117 286
121 322 136 357 150 352 6 -2 32 -57 58 -123z m837 105 c28 -6 53 -15 57 -20
8 -13 -7 -169 -16 -169 -4 0 -10 17 -14 38 -11 71 -85 114 -197 113 -83 0
-123 -16 -170 -68 -49 -54 -63 -100 -63 -208 -1 -79 3 -98 27 -147 35 -72 110
-141 172 -158 62 -17 156 -8 194 19 16 12 35 37 41 56 6 19 16 35 21 35 12 0
11 -38 -2 -99 -9 -44 -14 -51 -42 -60 -93 -29 -250 -21 -341 18 -64 28 -139
101 -167 164 -20 43 -24 69 -24 152 0 89 3 106 28 157 44 91 106 144 202 174
50 16 227 18 294 3z m-1714 -9 c3 -5 -3 -10 -14 -10 -42 0 -51 -24 -51 -144
l0 -113 28 -6 c16 -3 37 -4 48 -2 10 2 70 4 132 4 l112 1 0 113 c0 61 -4 117
-8 123 -4 6 -22 15 -39 19 -69 14 -28 25 97 25 121 0 163 -10 105 -24 -34 -9
-40 -37 -39 -201 1 -434 1 -435 65 -435 18 0 28 -4 24 -10 -4 -6 -60 -10 -135
-10 -75 0 -131 4 -135 10 -3 6 3 10 14 10 45 0 51 22 51 176 l0 144 -160 0
-160 0 0 -144 c0 -160 6 -176 61 -176 16 0 29 -4 29 -10 0 -6 -52 -10 -135
-10 -83 0 -135 4 -135 10 0 6 8 10 19 10 42 0 46 20 49 284 1 138 -1 271 -5
296 -8 41 -12 45 -46 55 -21 6 -35 14 -31 18 11 11 252 8 259 -3z m2140 1 c-6
-5 -19 -11 -30 -13 -17 -3 -21 -14 -28 -78 -9 -84 -1 -184 14 -174 25 15 199
221 199 234 0 9 -5 21 -12 28 -9 9 13 12 102 11 72 0 107 -4 95 -9 -11 -4 -35
-14 -54 -21 -33 -12 -261 -233 -261 -252 0 -13 170 -205 246 -278 38 -36 83
-70 99 -76 71 -26 71 -28 -15 -31 -47 -2 -95 0 -108 3 -34 8 -92 65 -199 196
-53 65 -99 117 -101 114 -9 -9 -1 -270 10 -282 6 -7 21 -13 34 -13 12 0 26 -4
29 -10 4 -6 -40 -10 -125 -10 -85 0 -129 4 -125 10 3 6 14 10 25 10 10 0 21 8
26 18 11 24 17 506 7 562 -8 41 -11 45 -41 48 -17 2 -32 7 -32 13 0 5 55 9
127 9 76 0 123 -4 118 -9z m-1440 -701 c4 -6 -6 -10 -22 -9 -25 0 -26 1 -8 9
11 5 21 9 22 9 1 1 5 -3 8 -9z m-180 -20 c3 -5 2 -10 -4 -10 -5 0 -13 5 -16
10 -3 6 -2 10 4 10 5 0 13 -4 16 -10z m-975 -14 c0 -2 -7 -6 -15 -10 -8 -3
-15 -1 -15 4 0 6 7 10 15 10 8 0 15 -2 15 -4z m50 -6 c0 -5 -4 -10 -10 -10 -5
0 -10 5 -10 10 0 6 5 10 10 10 6 0 10 -4 10 -10z m895 0 c-3 -5 -11 -10 -16
-10 -6 0 -7 5 -4 10 3 6 11 10 16 10 6 0 7 -4 4 -10z m-317 -10 c16 -1 16 -1
0 -10 -18 -11 -48 -3 -48 12 0 6 7 7 16 4 9 -3 23 -6 32 -6z m57 -9 c-8 -13
-35 -15 -35 -2 0 5 8 11 18 13 21 5 26 2 17 -11z m-602 -11 c3 -12 0 -20 -7
-20 -6 0 -12 9 -13 20 -1 11 2 20 6 20 5 0 11 -9 14 -20z m1842 -30 c3 -5 1
-10 -4 -10 -6 0 -11 5 -11 10 0 6 2 10 4 10 3 0 8 -4 11 -10z m401 1 c5 -5 17
-11 26 -13 11 -2 15 -8 10 -16 -6 -9 -13 -8 -28 6 -11 11 -26 22 -34 25 -13 4
-12 6 1 6 8 1 19 -3 25 -8z m-2369 -7 c-3 -3 -12 -4 -19 -1 -8 3 -5 6 6 6 11
1 17 -2 13 -5z m120 -19 c0 -10 -12 -14 -39 -12 -35 2 -45 7 -34 18 3 2 20 5
39 6 23 1 34 -3 34 -12z m1313 -5 c0 -4 -6 -10 -14 -13 -10 -4 -12 0 -9 14 5
18 23 18 23 -1z m727 14 c-3 -3 -12 -4 -19 -1 -8 3 -5 6 6 6 11 1 17 -2 13 -5z
m-1287 -24 c0 -5 -4 -10 -10 -10 -5 0 -10 5 -10 10 0 6 5 10 10 10 6 0 10 -4
10 -10z m209 -11 c-16 -10 -23 -4 -14 10 3 6 11 8 17 5 6 -4 5 -9 -3 -15z
m1461 17 c0 -8 -61 -12 -66 -4 -3 4 11 8 30 8 20 0 36 -2 36 -4z m-1640 -16
c0 -5 -5 -10 -11 -10 -5 0 -7 5 -4 10 3 6 8 10 11 10 2 0 4 -4 4 -10z m50 -6
c0 -2 -7 -4 -15 -4 -8 0 -15 4 -15 10 0 5 7 7 15 4 8 -4 15 -8 15 -10z m45 6
c3 -5 -1 -10 -10 -10 -9 0 -13 5 -10 10 3 6 8 10 10 10 2 0 7 -4 10 -10z m395
0 c0 -5 -7 -10 -15 -10 -8 0 -15 5 -15 10 0 6 7 10 15 10 8 0 15 -4 15 -10z
m260 -6 c0 -2 -7 -4 -15 -4 -8 0 -15 4 -15 10 0 5 7 7 15 4 8 -4 15 -8 15 -10z
m523 9 c-7 -2 -19 -2 -25 0 -7 3 -2 5 12 5 14 0 19 -2 13 -5z m157 -3 c0 -5
-4 -10 -9 -10 -6 0 -13 5 -16 10 -3 6 1 10 9 10 9 0 16 -4 16 -10z m-1293 -6
c-3 -3 -12 -4 -19 -1 -8 3 -5 6 6 6 11 1 17 -2 13 -5z m170 0 c-3 -3 -12 -4
-19 -1 -8 3 -5 6 6 6 11 1 17 -2 13 -5z m-517 -34 c0 -5 -4 -10 -10 -10 -5 0
-10 5 -10 10 0 6 5 10 10 10 6 0 10 -4 10 -10z m330 -24 c0 -3 -9 -6 -20 -6
-19 0 -27 20 -14 33 6 6 34 -16 34 -27z m140 25 c0 -4 18 -5 40 -1 42 8 80 -5
88 -29 4 -11 -2 -12 -24 -6 -16 4 -34 8 -41 8 -7 0 -10 4 -7 9 9 14 -13 9 -26
-7 -7 -8 -18 -15 -24 -15 -6 0 -5 4 3 9 11 7 9 10 -8 16 -21 6 -29 25 -11 25
6 0 10 -4 10 -9z m415 -1 c17 -7 15 -9 -12 -9 -18 -1 -33 4 -33 9 0 12 17 12
45 0z m-1900 -10 c-3 -5 -10 -10 -16 -10 -5 0 -9 5 -9 10 0 6 7 10 16 10 8 0
12 -4 9 -10z m65 0 c0 -5 18 -10 40 -10 22 0 40 -3 40 -8 0 -9 -117 -9 -126 0
-3 4 -3 11 1 17 8 14 45 14 45 1z m543 -4 c3 -8 0 -16 -6 -19 -16 -6 -77 4
-77 12 0 4 14 6 30 3 18 -3 30 0 30 7 0 16 17 14 23 -3z m324 8 c-3 -3 -12 -4
-19 -1 -8 3 -5 6 6 6 11 1 17 -2 13 -5z m53 -9 c0 -8 -2 -15 -4 -15 -2 0 -6 7
-10 15 -3 8 -1 15 4 15 6 0 10 -7 10 -15z m73 8 c-7 -2 -19 -2 -25 0 -7 3 -2
5 12 5 14 0 19 -2 13 -5z m187 -3 c0 -5 -4 -10 -9 -10 -6 0 -13 5 -16 10 -3 6
1 10 9 10 9 0 16 -4 16 -10z m-470 -9 c0 -5 -7 -12 -16 -15 -14 -5 -15 -4 -4
9 14 17 20 19 20 6z m520 0 c0 -5 -9 -7 -20 -4 -11 3 -20 7 -20 9 0 2 9 4 20
4 11 0 20 -4 20 -9z m345 0 c3 -5 1 -12 -5 -16 -5 -3 -10 1 -10 9 0 18 6 21
15 7z m389 1 c2 -4 -4 -9 -15 -9 -11 -1 -17 2 -14 8 7 11 22 12 29 1z m261 -2
c3 -5 -1 -10 -9 -10 -9 0 -16 5 -16 10 0 6 4 10 9 10 6 0 13 -4 16 -10z
m-1935 -10 c-20 -13 -40 -13 -40 0 0 6 12 10 28 10 21 0 24 -2 12 -10z m1087
4 c-3 -3 -12 -4 -19 -1 -8 3 -5 6 6 6 11 1 17 -2 13 -5z m-727 -269 c0 -8 -7
-15 -16 -15 -14 0 -14 3 -4 15 7 8 14 15 16 15 2 0 4 -7 4 -15z m290 -107 c0
-19 -2 -20 -10 -8 -13 19 -13 30 0 30 6 0 10 -10 10 -22z m760 -8 c0 -5 -4
-10 -10 -10 -5 0 -10 5 -10 10 0 6 5 10 10 10 6 0 10 -4 10 -10z m230 -30 c0
-5 -7 -10 -15 -10 -8 0 -15 5 -15 10 0 6 7 10 15 10 8 0 15 -4 15 -10z m-970
-24 c0 -3 -4 -8 -10 -11 -5 -3 -10 -1 -10 4 0 6 5 11 10 11 6 0 10 -2 10 -4z
m470 -36 c0 -5 -2 -10 -4 -10 -3 0 -8 5 -11 10 -3 6 -1 10 4 10 6 0 11 -4 11
-10z m-805 -30 c0 -22 -29 -18 -33 3 -3 14 1 18 15 15 10 -2 18 -10 18 -18z
m275 6 c0 -3 -4 -8 -10 -11 -5 -3 -10 -1 -10 4 0 6 5 11 10 11 6 0 10 -2 10
-4z m720 -80 c0 -3 -4 -8 -10 -11 -5 -3 -10 -1 -10 4 0 6 5 11 10 11 6 0 10
-2 10 -4z m-389 -21 c-1 -15 -24 -12 -29 3 -3 9 2 13 12 10 10 -1 17 -7 17
-13z m-403 -17 c-6 -18 -25 -20 -31 -3 -5 10 0 15 14 15 12 0 19 -5 17 -12z
m502 -28 c0 -5 -4 -10 -10 -10 -5 0 -10 5 -10 10 0 6 5 10 10 10 6 0 10 -4 10
-10z m-1070 -40 c0 -5 -2 -10 -4 -10 -3 0 -8 5 -11 10 -3 6 -1 10 4 10 6 0 11
-4 11 -10z m1490 -9 c0 -6 -4 -13 -10 -16 -5 -3 -10 1 -10 9 0 9 5 16 10 16 6
0 10 -4 10 -9z m-865 -11 c3 -5 2 -10 -4 -10 -5 0 -13 5 -16 10 -3 6 -2 10 4
10 5 0 13 -4 16 -10z m705 0 c0 -5 -4 -10 -10 -10 -5 0 -10 5 -10 10 0 6 5 10
10 10 6 0 10 -4 10 -10z m90 0 c0 -5 -4 -10 -10 -10 -5 0 -10 5 -10 10 0 6 5
10 10 10 6 0 10 -4 10 -10z m-390 -40 c0 -5 -7 -10 -16 -10 -8 0 -12 5 -9 10
3 6 10 10 16 10 5 0 9 -4 9 -10z m40 -100 c0 -5 -2 -10 -4 -10 -3 0 -8 5 -11
10 -3 6 -1 10 4 10 6 0 11 -4 11 -10z m-1535 -50 c3 -5 -1 -10 -9 -10 -9 0
-16 5 -16 10 0 6 4 10 9 10 6 0 13 -4 16 -10z m95 -50 c0 -5 -2 -10 -4 -10 -3
0 -8 5 -11 10 -3 6 -1 10 4 10 6 0 11 -4 11 -10z m2184 -198 c3 -5 -1 -9 -9
-9 -8 0 -12 4 -9 9 3 4 7 8 9 8 2 0 6 -4 9 -8z m-2500 -51 c3 -5 -1 -14 -8
-20 -16 -13 -32 2 -21 19 8 12 22 13 29 1z m886 -15 c0 -3 -4 -8 -10 -11 -5
-3 -10 -1 -10 4 0 6 5 11 10 11 6 0 10 -2 10 -4z m680 -36 c0 -5 -4 -10 -10
-10 -5 0 -10 5 -10 10 0 6 5 10 10 10 6 0 10 -4 10 -10z m829 -86 c4 3 12 -3
18 -13 8 -13 6 -22 -8 -40 -11 -13 -19 -19 -20 -15 -5 64 -6 104 -2 86 2 -12
8 -20 12 -18z m418 14 c-3 -8 -6 -5 -6 6 -1 11 2 17 5 13 3 -3 4 -12 1 -19z
m-925 -20 c-7 -7 -12 -8 -12 -2 0 14 12 26 19 19 2 -3 -1 -11 -7 -17z m705
-30 c-3 -8 -6 -5 -6 6 -1 11 2 17 5 13 3 -3 4 -12 1 -19z m840 6 c-3 -3 -12
-4 -19 -1 -8 3 -5 6 6 6 11 1 17 -2 13 -5z m-1581 -28 c-3 -14 -2 -28 4 -31 5
-3 9 -16 9 -28 -1 -20 -2 -21 -6 -2 -3 11 -10 23 -15 26 -9 6 -1 59 9 59 3 0
2 -11 -1 -24z m580 -11 c1 -14 -2 -25 -7 -25 -10 0 -12 33 -2 43 3 4 7 7 7 7
1 0 2 -11 2 -25z m161 -17 c-3 -7 -5 -2 -5 12 0 14 2 19 5 13 2 -7 2 -19 0
-25z m-110 0 c-3 -8 -6 -5 -6 6 -1 11 2 17 5 13 3 -3 4 -12 1 -19z m957 15 c4
-5 13 -8 19 -8 7 0 13 -12 15 -26 3 -27 5 -27 -58 -20 -12 1 -12 4 3 15 18 14
24 32 7 21 -5 -3 -10 1 -10 9 0 17 12 21 24 9z m481 -2 c3 -5 1 -12 -5 -16 -5
-3 -10 1 -10 9 0 18 6 21 15 7z m-815 -36 c0 -5 -5 -3 -10 5 -5 8 -10 20 -10
25 0 6 5 3 10 -5 5 -8 10 -19 10 -25z m627 9 c-3 -3 -12 -4 -19 -1 -8 3 -5 6
6 6 11 1 17 -2 13 -5z m103 -14 c-10 -19 -30 -28 -30 -14 0 6 30 33 38 34 1 0
-2 -9 -8 -20z m-2350 6 c0 -3 -4 -8 -10 -11 -5 -3 -10 -1 -10 4 0 6 5 11 10
11 6 0 10 -2 10 -4z m900 -6 c0 -5 -2 -10 -4 -10 -3 0 -8 5 -11 10 -3 6 -1 10
4 10 6 0 11 -4 11 -10z m40 6 c0 -11 -19 -15 -25 -6 -3 5 1 10 9 10 9 0 16 -2
16 -4z m1310 -29 c0 -5 7 -15 15 -23 8 -9 15 -31 15 -50 0 -20 5 -34 13 -34 9
0 9 -2 0 -8 -9 -6 -11 -28 -8 -75 3 -38 1 -76 -4 -85 -9 -14 -10 -12 -11 14 0
16 -6 39 -14 49 -7 10 -11 26 -9 36 3 9 -2 28 -11 40 -18 29 -38 112 -31 131
6 15 45 19 45 5z m-215 -7 c3 -5 12 -7 20 -3 9 3 15 -1 15 -11 0 -24 -46 -21
-53 4 -5 20 7 28 18 10z m98 -80 c-2 -2 -8 2 -12 9 -5 7 -13 11 -19 7 -5 -3
-12 8 -14 25 -3 16 -1 32 4 35 8 5 12 -9 9 -33 -1 -7 3 -13 9 -13 5 0 11 15
11 33 1 27 3 26 9 -13 4 -25 6 -47 3 -50z m-1771 61 c15 -17 14 -18 -8 -18
-27 0 -26 -1 -18 21 8 20 6 20 26 -3z m533 9 c3 -5 -1 -10 -9 -10 -9 0 -16 5
-16 10 0 6 4 10 9 10 6 0 13 -4 16 -10z m185 -25 c0 -32 -12 -46 -23 -27 -2 4
-2 0 1 -8 11 -35 18 -101 12 -105 -4 -3 -5 -16 -2 -31 4 -20 1 -25 -9 -22 -10
3 -17 34 -23 102 -8 89 -8 98 10 111 29 22 34 18 34 -20z m710 31 c0 -3 -4 -8
-10 -11 -5 -3 -10 -1 -10 4 0 6 5 11 10 11 6 0 10 -2 10 -4z m-1587 -24 c9
-10 23 -36 31 -58 l15 -39 0 33 c1 17 6 32 11 32 6 0 10 -5 10 -11 0 -5 3 -8
8 -6 4 3 8 -6 8 -19 1 -13 -2 -21 -7 -18 -5 3 -9 -4 -9 -15 0 -11 8 -24 17
-30 28 -15 10 -22 -25 -9 -29 11 -38 28 -33 60 2 16 -30 78 -46 87 -10 6 -13
11 -7 11 6 0 18 -8 27 -18z m87 -1 c0 -25 -12 -32 -30 -20 -10 6 -11 9 -2 9 6
0 12 7 12 15 0 8 5 15 10 15 6 0 10 -9 10 -19z m1640 9 c0 -5 -5 -10 -11 -10
-5 0 -7 5 -4 10 3 6 8 10 11 10 2 0 4 -4 4 -10z m-2220 -10 c0 -5 -4 -10 -10
-10 -5 0 -10 5 -10 10 0 6 5 10 10 10 6 0 10 -4 10 -10z m1397 -32 c-3 -7 -5
-2 -5 12 0 14 2 19 5 13 2 -7 2 -19 0 -25z m531 -1 c12 -3 10 -5 -5 -6 -18 -1
-23 4 -22 22 1 15 3 17 6 5 2 -9 12 -19 21 -21z m109 13 c9 -13 10 -27 3 -42
-8 -22 -9 -21 -9 8 -1 16 -6 35 -13 42 -7 7 -8 12 -2 12 5 0 15 -9 21 -20z
m49 4 c-4 -9 -2 -22 4 -29 6 -7 7 -21 3 -31 -6 -15 -8 -13 -14 15 -7 32 -3 61
8 61 3 0 2 -7 -1 -16z m-873 -8 c6 -16 -2 -28 -14 -20 -12 7 -11 34 0 34 5 0
11 -6 14 -14z m1064 -71 c-3 -49 -1 -72 6 -68 6 4 8 0 4 -11 -4 -10 -7 -22 -7
-27 0 -5 -4 -9 -10 -9 -5 0 -10 11 -10 25 0 14 -6 25 -12 26 -7 0 -4 4 7 9 11
5 14 9 7 9 -9 1 -11 8 -7 22 5 16 4 19 -6 14 -9 -6 -11 -4 -6 8 3 9 2 19 -3
22 -15 9 -12 25 4 25 8 0 16 7 20 15 12 33 17 11 13 -60z m-60 28 c0 -9 -4
-10 -14 -2 -7 6 -13 12 -13 14 0 1 6 2 13 2 8 0 14 -6 14 -14z m-1737 3 c0 -3
-4 -8 -10 -11 -5 -3 -10 -1 -10 4 0 6 5 11 10 11 6 0 10 -2 10 -4z m1441 -58
c0 -35 2 -89 3 -120 1 -42 -2 -58 -11 -58 -7 0 -13 12 -14 28 0 15 -1 50 -1
77 -2 90 2 135 12 135 6 0 10 -28 11 -62z m478 0 c1 -16 -2 -28 -6 -28 -5 0
-9 21 -10 48 -1 33 1 41 7 27 5 -11 9 -32 9 -47z m-2769 43 c0 -12 -20 -25
-27 -18 -7 7 6 27 18 27 5 0 9 -4 9 -9z m290 -44 c0 -23 1 -107 3 -187 2 -80
0 -161 -3 -180 l-6 -35 -8 30 c-4 17 -4 31 2 33 5 1 6 21 2 45 -13 73 -13 350
0 342 6 -4 11 -25 10 -48z m705 33 c-10 -11 -21 -18 -23 -15 -3 3 3 12 14 20
27 20 30 18 9 -5z m1805 -15 c0 -14 -4 -25 -10 -25 -5 0 -10 11 -10 25 0 14 5
25 10 25 6 0 10 -11 10 -25z m-872 -24 c3 -8 -1 -12 -9 -9 -7 2 -15 10 -17 17
-3 8 1 12 9 9 7 -2 15 -10 17 -17z m-2033 -1 c3 -5 1 -10 -4 -10 -6 0 -11 5
-11 10 0 6 2 10 4 10 3 0 8 -4 11 -10z m3090 -10 c10 -11 14 -20 9 -20 -5 0
-15 9 -22 20 -7 11 -11 20 -9 20 2 0 12 -9 22 -20z m-567 -4 c-7 -8 -15 -12
-17 -11 -5 6 10 25 20 25 5 0 4 -6 -3 -14z m-1509 -48 c1 -5 -3 -8 -9 -8 -5 0
-10 12 -9 28 0 24 1 25 9 7 5 -11 9 -23 9 -27z m1057 4 c-16 -15 -25 -20 -21
-12 13 25 38 50 44 45 3 -3 -8 -18 -23 -33z m474 23 c0 -8 -2 -15 -4 -15 -2 0
-6 7 -10 15 -3 8 -1 15 4 15 6 0 10 -7 10 -15z m-420 -5 c0 -5 -4 -10 -10 -10
-5 0 -10 5 -10 10 0 6 5 10 10 10 6 0 10 -4 10 -10z m488 -39 c-3 -53 -23 -84
-33 -52 -3 10 1 30 9 46 8 15 12 34 9 41 -3 8 0 14 6 14 8 0 11 -17 9 -49z
m-886 17 c-7 -7 -12 -8 -12 -2 0 14 12 26 19 19 2 -3 -1 -11 -7 -17z m165 -20
c-3 -7 -5 -2 -5 12 0 14 2 19 5 13 2 -7 2 -19 0 -25z m983 16 c0 -8 -5 -12
-10 -9 -6 4 -8 11 -5 16 9 14 15 11 15 -7z m-1775 -66 c1 -10 -5 -18 -14 -19
-10 0 -12 -2 -3 -6 6 -2 12 -11 12 -20 0 -12 -2 -12 -13 -1 -8 8 -12 29 -9 57
4 38 6 41 15 25 6 -10 12 -27 12 -36z m715 0 c0 -37 -8 -35 -26 7 -18 45 -18
48 6 33 12 -8 20 -24 20 -40z m729 20 c-1 -18 -3 -25 -6 -16 -3 11 -10 15 -21
11 -14 -5 -13 -2 3 15 26 27 25 27 24 -10z m-905 16 c9 -3 16 -17 16 -31 0
-13 -4 -22 -9 -18 -5 3 -12 -3 -14 -12 -4 -14 -5 -13 -6 5 0 12 -6 22 -12 22
-6 0 -9 -22 -8 -55 1 -30 -1 -58 -4 -62 -7 -6 -12 84 -7 117 2 14 19 40 25 40
2 0 10 -3 19 -6z m696 -26 c0 -3 -9 -4 -20 -1 -23 6 -26 19 -7 26 11 4 27 -10
27 -25z m-1060 18 c0 -3 -4 -8 -10 -11 -5 -3 -10 -1 -10 4 0 6 5 11 10 11 6 0
10 -2 10 -4z m80 -17 c0 -5 -4 -9 -10 -9 -5 0 -10 7 -10 16 0 8 5 12 10 9 6
-3 10 -10 10 -16z m740 -36 c0 -13 9 -38 20 -53 11 -16 22 -50 25 -77 l5 -48
-14 40 c-7 23 -26 65 -40 94 -15 29 -25 60 -22 68 9 21 26 6 26 -24z m-1050
17 c0 -5 -4 -10 -10 -10 -5 0 -10 5 -10 10 0 6 5 10 10 10 6 0 10 -4 10 -10z
m260 -37 c0 -32 -5 -28 -14 10 -4 19 -3 26 4 22 5 -3 10 -18 10 -32z m1010 27
c0 -5 -2 -10 -4 -10 -3 0 -8 5 -11 10 -3 6 -1 10 4 10 6 0 11 -4 11 -10z
m-2152 -20 c7 -11 10 -20 6 -20 -7 0 -34 27 -34 34 0 13 16 5 28 -14z m2577
-18 c-8 -8 -25 10 -19 20 4 6 9 5 15 -3 4 -7 6 -15 4 -17z m-1089 -69 c-11
-11 -17 4 -9 23 7 18 8 18 11 1 2 -10 1 -21 -2 -24z m57 -10 c-7 -2 -19 -2
-25 0 -7 3 -2 5 12 5 14 0 19 -2 13 -5z m-1544 -17 c9 -11 6 -13 -14 -13 -28
0 -42 -9 -32 -19 4 -4 13 -1 22 6 11 9 15 9 15 1 0 -8 5 -9 16 -3 18 10 64 4
64 -9 0 -5 -11 -4 -25 1 -15 6 -26 6 -30 0 -4 -6 1 -10 9 -10 9 0 16 -7 16
-16 0 -13 -4 -12 -28 4 -21 16 -32 18 -46 10 -14 -8 -24 -8 -37 1 -11 6 -30
11 -44 11 -14 0 -25 5 -25 11 0 7 12 9 33 5 22 -4 41 0 62 13 17 11 31 20 31
20 1 1 7 -5 13 -13z m1411 -5 c0 -6 -4 -13 -10 -16 -5 -3 -10 1 -10 9 0 9 5
16 10 16 6 0 10 -4 10 -9z m-1470 -91 c-33 -26 -49 -26 -19 0 13 10 29 19 34
19 6 1 -1 -8 -15 -19z m1520 -10 c0 -5 -9 -10 -19 -10 -11 0 -28 -3 -38 -6
-16 -5 -16 -4 1 10 22 18 56 21 56 6z m-1520 -25 c-7 -9 -15 -13 -17 -11 -7 7
7 26 19 26 6 0 6 -6 -2 -15z"/>
<path d="M1981 4919 c-18 -50 -30 -98 -27 -105 8 -20 125 -19 132 1 6 16 -54
195 -66 195 -4 0 -22 -41 -39 -91z"/>
<path d="M2380 2530 c0 -5 7 -10 16 -10 8 0 12 5 9 10 -3 6 -10 10 -16 10 -5
0 -9 -4 -9 -10z"/>
<path d="M3645 4140 c-3 -6 1 -7 9 -4 18 7 21 14 7 14 -6 0 -13 -4 -16 -10z"/>
<path d="M3560 4130 c-12 -7 -10 -9 8 -7 12 0 22 5 22 9 0 11 -12 10 -30 -2z"/>
<path d="M3676 3694 c-6 -15 -4 -15 11 -3 10 7 20 15 22 16 2 2 -3 3 -11 3 -9
0 -19 -7 -22 -16z"/>
<path d="M3815 3700 c3 -5 10 -10 16 -10 5 0 9 5 9 10 0 6 -7 10 -16 10 -8 0
-12 -4 -9 -10z"/>
<path d="M3723 3687 c5 -17 33 -21 40 -5 3 9 -4 15 -20 16 -16 1 -23 -3 -20
-11z"/>
<path d="M2272 3610 c-1 -35 2 -36 30 -10 19 17 19 20 5 20 -9 0 -17 5 -17 10
0 6 -4 10 -8 10 -5 0 -9 -13 -10 -30z"/>
<path d="M3950 3601 c0 -6 -10 -11 -21 -11 -18 0 -19 -3 -9 -15 9 -11 17 -12
32 -4 11 6 33 8 49 5 15 -3 31 -1 35 5 8 14 5 16 -43 24 -29 4 -43 3 -43 -4z"/>
<path d="M2476 3257 c3 -8 11 -14 19 -14 20 0 19 13 -1 21 -22 8 -24 8 -18 -7z"/>
<path d="M2437 3241 c-2 -11 -1 -24 3 -31 9 -14 62 -10 58 5 -2 6 -9 9 -15 9
-7 -1 -11 1 -9 5 3 4 -4 12 -14 18 -15 10 -19 9 -23 -6z"/>
<path d="M1876 3200 c-15 -28 -31 -64 -36 -81 l-9 -30 33 28 c17 15 28 30 24
31 -5 2 3 15 17 27 28 27 32 47 12 64 -11 9 -20 0 -41 -39z"/>
<path d="M2540 3170 c0 -6 7 -10 15 -10 8 0 15 2 15 4 0 2 -7 6 -15 10 -8 3
-15 1 -15 -4z"/>
<path d="M2415 3160 c-4 -6 6 -10 22 -10 22 0 25 2 13 10 -19 12 -27 12 -35 0z"/>
<path d="M2371 3124 c0 -11 3 -14 6 -6 3 7 2 16 -1 19 -3 4 -6 -2 -5 -13z"/>
<path d="M2024 3065 c1 -33 16 -33 16 0 0 14 -4 25 -9 25 -5 0 -8 -11 -7 -25z"/>
<path d="M3526 3021 c-4 -7 -5 -15 -2 -18 9 -9 19 4 14 18 -4 11 -6 11 -12 0z"/>
<path d="M2730 3010 c0 -5 5 -10 11 -10 5 0 7 5 4 10 -3 6 -8 10 -11 10 -2 0
-4 -4 -4 -10z"/>
<path d="M2002 2980 c0 -14 2 -19 5 -12 2 6 2 18 0 25 -3 6 -5 1 -5 -13z"/>
<path d="M1710 2971 c0 -6 4 -13 10 -16 6 -3 7 1 4 9 -7 18 -14 21 -14 7z"/>
<path d="M2092 2910 c0 -14 2 -19 5 -12 2 6 2 18 0 25 -3 6 -5 1 -5 -13z"/>
<path d="M3030 2887 c0 -19 16 -31 24 -18 3 5 -1 14 -9 21 -12 10 -15 10 -15
-3z"/>
<path d="M3207 2831 c-3 -14 -1 -18 9 -14 16 6 18 19 5 27 -5 3 -11 -3 -14
-13z"/>
<path d="M1941 2814 c0 -11 3 -14 6 -6 3 7 2 16 -1 19 -3 4 -6 -2 -5 -13z"/>
<path d="M1946 2777 c3 -10 9 -15 12 -12 3 3 0 11 -7 18 -10 9 -11 8 -5 -6z"/>
<path d="M2001 2714 c0 -11 3 -14 6 -6 3 7 2 16 -1 19 -3 4 -6 -2 -5 -13z"/>
<path d="M1948 2704 c-16 -8 -28 -19 -28 -25 0 -12 31 4 50 25 15 19 13 19
-22 0z"/>
<path d="M2002 2655 c0 -16 2 -22 5 -12 2 9 2 23 0 30 -3 6 -5 -1 -5 -18z"/>
<path d="M2286 2595 c-3 -8 -1 -15 4 -15 6 0 10 7 10 15 0 8 -2 15 -4 15 -2 0
-6 -7 -10 -15z"/>
<path d="M915 2230 c3 -5 8 -10 11 -10 2 0 4 5 4 10 0 6 -5 10 -11 10 -5 0 -7
-4 -4 -10z"/>
<path d="M887 2194 c6 -15 23 -19 23 -5 0 5 -7 11 -14 14 -10 4 -13 1 -9 -9z"/>
<path d="M890 2159 c0 -5 5 -7 10 -4 6 3 10 8 10 11 0 2 -4 4 -10 4 -5 0 -10
-5 -10 -11z"/>
<path d="M907 2143 c-10 -9 -9 -23 1 -23 5 0 9 7 9 15 0 17 -1 18 -10 8z"/>
<path d="M895 2100 c3 -5 15 -10 26 -10 11 0 17 5 14 10 -3 6 -15 10 -26 10
-11 0 -17 -4 -14 -10z"/>
<path d="M995 2030 c3 -5 11 -10 16 -10 6 0 7 5 4 10 -3 6 -11 10 -16 10 -6 0
-7 -4 -4 -10z"/>
<path d="M1034 2018 l-19 -23 23 19 c21 18 27 26 19 26 -2 0 -12 -10 -23 -22z"/>
<path d="M950 2018 c0 -22 17 -41 29 -34 17 11 13 24 -9 36 -15 8 -20 8 -20
-2z"/>
<path d="M903 1979 c8 -20 13 -25 15 -15 2 9 9 16 15 16 13 1 -21 30 -34 30
-4 0 -2 -14 4 -31z"/>
<path d="M880 1975 c0 -5 5 -17 10 -25 5 -8 10 -10 10 -5 0 6 -5 17 -10 25 -5
8 -10 11 -10 5z"/>
<path d="M827 1935 c-6 -35 -4 -40 10 -23 6 7 7 22 3 33 -6 17 -8 15 -13 -10z"/>
<path d="M900 1910 c0 -5 5 -10 10 -10 6 0 10 5 10 10 0 6 -4 10 -10 10 -5 0
-10 -4 -10 -10z"/>
<path d="M776 1901 c-7 -11 3 -41 14 -41 4 0 10 6 13 14 7 17 -18 42 -27 27z"/>
<path d="M970 1891 c0 -5 5 -13 10 -16 6 -3 10 -2 10 4 0 5 -4 13 -10 16 -5 3
-10 2 -10 -4z"/>
<path d="M821 1856 c-13 -7 -19 -16 -14 -19 6 -4 18 2 28 13 21 23 19 24 -14
6z"/>
<path d="M950 1851 c0 -5 5 -13 10 -16 6 -3 10 -2 10 4 0 5 -4 13 -10 16 -5 3
-10 2 -10 -4z"/>
<path d="M1037 1819 c2 -24 3 -56 3 -70 0 -22 4 -26 26 -23 29 3 46 14 21 14
-21 0 -42 36 -24 43 9 4 9 6 0 6 -7 1 -13 11 -13 24 0 12 -4 28 -9 36 -5 8 -7
-4 -4 -30z"/>
<path d="M733 1828 c-4 -7 -8 -17 -9 -23 0 -5 -2 -16 -2 -22 -1 -7 -6 -13 -12
-13 -5 0 -7 8 -3 18 4 11 -5 6 -25 -13 -17 -16 -32 -36 -32 -42 0 -15 38 -12
48 3 4 6 15 13 25 17 9 3 17 16 17 27 0 11 5 20 11 20 6 0 8 -9 4 -20 -5 -15
-3 -18 8 -14 13 5 26 33 27 56 0 3 -10 4 -22 0 -14 -3 -19 -2 -14 6 4 7 3 12
-3 12 -5 0 -13 -6 -18 -12z"/>
<path d="M987 1819 c-12 -7 -16 -17 -12 -30 4 -11 2 -19 -4 -19 -6 0 -11 5
-11 11 0 5 -5 7 -10 4 -6 -4 -8 -15 -5 -25 3 -10 -1 -24 -8 -32 -12 -11 -12
-17 -2 -31 16 -22 45 -22 45 -1 0 10 -6 14 -15 10 -12 -4 -13 -2 -3 14 12 18
14 18 36 4 40 -26 42 -7 5 46 -14 20 -15 23 -2 13 14 -11 16 -9 17 17 1 32 -3
35 -31 19z"/>
<path d="M812 1754 c-7 -8 -18 -11 -26 -8 -9 3 -17 -6 -24 -25 -6 -17 -16 -31
-22 -31 -6 0 -8 6 -5 13 4 6 -2 2 -13 -10 -11 -12 -32 -25 -48 -29 -16 -3 -49
-19 -74 -33 -25 -15 -53 -30 -62 -34 -10 -3 -18 -11 -18 -17 0 -14 180 -12
198 2 7 6 26 18 44 27 35 18 41 27 58 89 7 28 19 46 33 52 24 9 23 10 -9 14
-11 1 -26 -3 -32 -10z m-29 -49 c-8 -22 -22 -18 -16 5 3 11 9 17 14 15 4 -3 6
-12 2 -20z m-56 -57 c-3 -8 -6 -5 -6 6 -1 11 2 17 5 13 3 -3 4 -12 1 -19z"/>
<path d="M890 1756 c0 -2 7 -9 15 -16 9 -7 15 -8 15 -2 0 5 -7 12 -15 16 -8 3
-15 4 -15 2z"/>
<path d="M990 1700 c0 -6 7 -10 15 -10 8 0 15 2 15 4 0 2 -7 6 -15 10 -8 3
-15 1 -15 -4z"/>
<path d="M0 730 l0 -730 2025 0 2025 0 0 705 0 705 -37 0 c-62 1 -274 17 -323
24 -45 7 -530 8 -635 1 -44 -3 -113 -7 -154 -10 -41 -3 -117 -17 -170 -32 -91
-26 -107 -28 -326 -28 -126 -1 -277 2 -335 6 -188 14 -413 24 -780 34 -91 2
-232 7 -315 9 -143 6 -254 9 -729 21 -114 3 -217 10 -227 16 -19 9 -19 -6 -19
-721z m43 473 c-7 -2 -19 -2 -25 0 -7 3 -2 5 12 5 14 0 19 -2 13 -5z m433 -98
c-7 -18 45 -208 54 -198 4 4 22 52 41 105 19 54 36 98 40 98 3 0 20 -47 39
-105 19 -58 37 -102 40 -98 11 13 53 164 53 189 0 19 5 24 25 24 24 0 24 -1 9
-18 -10 -10 -17 -22 -17 -26 0 -20 -72 -236 -79 -236 -4 0 -22 47 -41 105 -19
58 -37 102 -41 98 -3 -5 -21 -52 -39 -105 -18 -54 -36 -98 -40 -98 -4 0 -21
51 -39 113 -18 61 -38 123 -45 137 -12 24 -11 25 17 27 19 0 27 -3 23 -12z
m1999 -48 c17 -34 34 -61 40 -61 5 1 23 29 40 62 21 42 36 61 49 61 19 1 19 0
-1 -21 -11 -13 -35 -48 -52 -79 -33 -59 -42 -134 -19 -157 9 -9 6 -12 -13 -12
-25 0 -25 2 -25 63 0 55 -4 69 -38 122 -21 33 -45 66 -54 73 -14 10 -12 12 14
11 26 0 32 -7 59 -62z m381 -15 c52 -66 10 -182 -70 -198 -90 -16 -160 79
-123 167 17 42 38 59 80 69 36 8 92 -10 113 -38z m763 42 c23 -5 31 -12 31
-28 0 -14 -3 -17 -8 -8 -5 7 -24 17 -42 22 -45 13 -100 -13 -113 -53 -13 -42
1 -96 34 -129 23 -24 36 -29 66 -26 l38 3 0 48 c0 35 4 47 15 47 13 0 15 -10
10 -52 -5 -47 -8 -52 -35 -60 -74 -19 -155 39 -155 113 0 94 62 142 159 123z
m-2042 -127 c50 -130 46 -118 31 -114 -7 1 -20 20 -29 42 -14 35 -21 40 -53
43 -35 3 -36 2 -48 -42 -7 -25 -18 -46 -25 -46 -15 0 -17 12 -4 25 5 6 24 56
42 112 18 56 35 100 38 98 2 -3 24 -56 48 -118z m623 110 c41 -21 39 -86 -3
-108 -21 -12 -21 -11 -4 8 9 11 17 29 17 41 0 26 -33 62 -56 62 -13 0 -15 -16
-12 -110 3 -100 1 -110 -15 -110 -16 0 -17 8 -14 63 2 34 1 86 -3 115 l-6 52
35 0 c20 0 47 -6 61 -13z m762 -47 c-8 -110 13 -160 67 -160 51 0 63 27 59
129 -2 76 0 91 12 91 13 0 14 -15 10 -96 -5 -90 -7 -97 -33 -120 -15 -13 -39
-24 -52 -24 -13 0 -37 11 -52 24 -26 23 -28 30 -33 120 -4 83 -3 96 11 96 13
0 15 -10 11 -60z m386 -102 c7 -10 16 -18 20 -18 4 0 5 40 2 90 -4 76 -3 90
10 90 13 0 15 -18 12 -115 -2 -63 -6 -115 -10 -114 -4 0 -43 41 -87 90 l-80
89 -3 -61 c-2 -34 1 -75 7 -90 8 -25 7 -29 -7 -29 -15 0 -17 12 -14 116 l3
117 67 -73 c37 -40 73 -82 80 -92z m-2463 37 c0 -103 -2 -115 -17 -115 -16 0
-18 12 -18 115 0 103 2 115 18 115 15 0 17 -12 17 -115z m127 10 l-3 -104 27
-7 c16 -4 35 -2 47 5 15 10 18 10 15 -1 -3 -8 -25 -14 -59 -16 l-54 -3 0 116
c0 95 3 115 15 115 13 0 14 -17 12 -105z m180 0 l-3 -104 27 -7 c16 -4 35 -2
47 5 15 10 18 10 15 -1 -3 -8 -26 -14 -68 -16 -53 -3 -61 -1 -52 11 7 8 11 51
9 115 -2 85 1 102 13 102 13 0 14 -17 12 -105z m183 -10 c0 -96 -3 -115 -15
-115 -12 0 -15 19 -15 115 0 96 3 115 15 115 12 0 15 -19 15 -115z m380 30
c21 -47 41 -87 45 -90 3 -2 23 36 44 86 21 49 41 89 46 89 4 0 10 -44 14 -97
4 -54 12 -103 18 -110 8 -10 5 -13 -9 -13 -18 0 -21 9 -28 83 l-8 82 -40 -85
-40 -85 -41 85 -41 85 -7 -70 c-4 -38 -5 -76 -3 -82 2 -7 -3 -13 -11 -13 -10
0 -14 6 -10 18 3 9 8 59 12 110 4 50 10 92 14 92 4 0 24 -38 45 -85z m510
-114 c7 -12 -12 -24 -25 -16 -11 7 -4 25 10 25 5 0 11 -4 15 -9z m-6 -233 c-1
-35 -2 -38 -8 -18 -7 23 -4 60 5 60 2 0 4 -19 3 -42z m1238 -20 c-2 -13 -4 -3
-4 22 0 25 2 35 4 23 2 -13 2 -33 0 -45z m-2890 -10 c-2 -13 -4 -3 -4 22 0 25
2 35 4 23 2 -13 2 -33 0 -45z m60 0 c-2 -13 -4 -3 -4 22 0 25 2 35 4 23 2 -13
2 -33 0 -45z m190 0 c-2 -13 -4 -3 -4 22 0 25 2 35 4 23 2 -13 2 -33 0 -45z
m200 0 c-2 -13 -4 -3 -4 22 0 25 2 35 4 23 2 -13 2 -33 0 -45z m100 25 c-3
-10 -5 -4 -5 12 0 17 2 24 5 18 2 -7 2 -21 0 -30z m250 -15 c-2 -13 -4 -5 -4
17 -1 22 1 32 4 23 2 -10 2 -28 0 -40z m988 32 c3 -5 1 -10 -4 -10 -6 0 -11 5
-11 10 0 6 2 10 4 10 3 0 8 -4 11 -10z m-1028 -47 c-3 -10 -5 -2 -5 17 0 19 2
27 5 18 2 -10 2 -26 0 -35z m343 43 c0 -3 -4 -8 -10 -11 -5 -3 -10 -1 -10 4 0
6 5 11 10 11 6 0 10 -2 10 -4z m130 -27 c0 -28 -15 -23 -16 6 -1 14 2 22 7 19
5 -3 9 -14 9 -25z m27 -6 c-3 -10 -5 -4 -5 12 0 17 2 24 5 18 2 -7 2 -21 0
-30z m213 7 c0 -16 -2 -30 -4 -30 -2 0 -6 14 -8 30 -3 17 -1 30 4 30 4 0 8
-13 8 -30z m607 -7 c-3 -10 -5 -4 -5 12 0 17 2 24 5 18 2 -7 2 -21 0 -30z
m240 0 c-3 -10 -5 -4 -5 12 0 17 2 24 5 18 2 -7 2 -21 0 -30z m30 0 c-3 -10
-5 -4 -5 12 0 17 2 24 5 18 2 -7 2 -21 0 -30z m160 0 c-3 -10 -5 -4 -5 12 0
17 2 24 5 18 2 -7 2 -21 0 -30z m43 12 c0 -14 -2 -25 -4 -25 -2 0 -6 11 -8 25
-3 14 -1 25 3 25 5 0 9 -11 9 -25z m37 -12 c-3 -10 -5 -4 -5 12 0 17 2 24 5
18 2 -7 2 -21 0 -30z m141 1 c-3 -14 -5 -12 -10 9 -3 19 -2 25 4 19 6 -6 8
-18 6 -28z m72 16 c6 -11 8 -20 6 -20 -3 0 -10 9 -16 20 -6 11 -8 20 -6 20 3
0 10 -9 16 -20z m39 -25 c0 -5 -4 -3 -9 5 -5 8 -9 22 -9 30 0 16 17 -16 18
-35z m78 8 c-3 -10 -5 -4 -5 12 0 17 2 24 5 18 2 -7 2 -21 0 -30z m-2790 -10
c-3 -10 -5 -4 -5 12 0 17 2 24 5 18 2 -7 2 -21 0 -30z m250 5 c-3 -7 -5 -2 -5
12 0 14 2 19 5 13 2 -7 2 -19 0 -25z m260 -5 c-3 -10 -5 -4 -5 12 0 17 2 24 5
18 2 -7 2 -21 0 -30z m53 5 c0 -5 -7 -3 -15 6 -8 8 -15 18 -15 22 0 3 7 1 15
-6 8 -7 15 -17 15 -22z m267 -30 c-2 -13 -4 -3 -4 22 0 25 2 35 4 23 2 -13 2
-33 0 -45z m43 47 c0 -8 -2 -15 -4 -15 -2 0 -6 7 -10 15 -3 8 -1 15 4 15 6 0
10 -7 10 -15z m64 -15 c-6 -6 -10 -3 -10 10 0 13 4 16 10 10 7 -7 7 -13 0 -20z
m123 -2 c-3 -7 -5 -2 -5 12 0 14 2 19 5 13 2 -7 2 -19 0 -25z m170 0 c-3 -7
-5 -2 -5 12 0 14 2 19 5 13 2 -7 2 -19 0 -25z m320 0 c-3 -7 -5 -2 -5 12 0 14
2 19 5 13 2 -7 2 -19 0 -25z m40 0 c-3 -7 -5 -2 -5 12 0 14 2 19 5 13 2 -7 2
-19 0 -25z m100 0 c-3 -7 -5 -2 -5 12 0 14 2 19 5 13 2 -7 2 -19 0 -25z m40 0
c-3 -7 -5 -2 -5 12 0 14 2 19 5 13 2 -7 2 -19 0 -25z m119 12 c0 -12 -4 -16
-9 -11 -5 5 -6 14 -3 20 10 15 12 14 12 -9z m41 -2 c-3 -8 -6 -5 -6 6 -1 11 2
17 5 13 3 -3 4 -12 1 -19z m30 -10 c-3 -7 -5 -2 -5 12 0 14 2 19 5 13 2 -7 2
-19 0 -25z m216 12 c3 -11 1 -20 -4 -20 -5 0 -9 9 -9 20 0 11 2 20 4 20 2 0 6
-9 9 -20z m120 0 c3 -11 1 -18 -4 -14 -5 3 -9 12 -9 20 0 20 7 17 13 -6z m54
-12 c-3 -7 -5 -2 -5 12 0 14 2 19 5 13 2 -7 2 -19 0 -25z m180 10 c-3 -8 -6
-5 -6 6 -1 11 2 17 5 13 3 -3 4 -12 1 -19z m40 -10 c-3 -7 -5 -2 -5 12 0 14 2
19 5 13 2 -7 2 -19 0 -25z m320 0 c-3 -7 -5 -2 -5 12 0 14 2 19 5 13 2 -7 2
-19 0 -25z m-2797 0 c0 -6 -6 -5 -15 2 -8 7 -15 14 -15 16 0 2 7 1 15 -2 8 -4
15 -11 15 -16z m127 0 c-3 -8 -6 -5 -6 6 -1 11 2 17 5 13 3 -3 4 -12 1 -19z
m110 0 c-3 -8 -6 -5 -6 6 -1 11 2 17 5 13 3 -3 4 -12 1 -19z m723 -3 c14 -19
14 -19 -2 -6 -10 7 -18 18 -18 24 0 6 1 8 3 6 1 -2 9 -13 17 -24z m-269 -2
c13 -16 12 -17 -3 -4 -10 7 -18 15 -18 17 0 8 8 3 21 -13z m229 -3 c0 -5 -2
-10 -4 -10 -3 0 -8 5 -11 10 -3 6 -1 10 4 10 6 0 11 -4 11 -10z m577 -147 c-2
-16 -4 -5 -4 22 0 28 2 40 4 28 2 -13 2 -35 0 -50z m100 5 c-2 -13 -4 -3 -4
22 0 25 2 35 4 23 2 -13 2 -33 0 -45z m500 0 c-2 -13 -4 -3 -4 22 0 25 2 35 4
23 2 -13 2 -33 0 -45z m720 40 c-3 -8 -6 -5 -6 6 -1 11 2 17 5 13 3 -3 4 -12
1 -19z m-3114 -69 c-4 -4 -6 13 -3 39 l5 47 3 -39 c2 -21 0 -42 -5 -47z m114
19 c-2 -13 -4 -3 -4 22 0 25 2 35 4 23 2 -13 2 -33 0 -45z m180 0 c-2 -13 -4
-3 -4 22 0 25 2 35 4 23 2 -13 2 -33 0 -45z m1040 30 c-3 -7 -5 -2 -5 12 0 14
2 19 5 13 2 -7 2 -19 0 -25z m43 18 c0 -8 -4 -17 -8 -20 -4 -2 -8 4 -8 15 0
10 4 19 8 19 4 0 8 -6 8 -14z m787 -38 c-2 -13 -4 -5 -4 17 -1 22 1 32 4 23 2
-10 2 -28 0 -40z m480 0 c-2 -13 -4 -5 -4 17 -1 22 1 32 4 23 2 -10 2 -28 0
-40z m-2320 28 c-3 -7 0 -19 6 -25 8 -8 8 -14 -2 -23 -10 -11 -11 -10 -6 3 4
10 2 20 -4 23 -10 6 -5 36 6 36 3 0 3 -6 0 -14z m534 -9 c-10 -9 -11 -8 -5 6
3 10 9 15 12 12 3 -3 0 -11 -7 -18z m-34 -9 c-3 -8 -6 -5 -6 6 -1 11 2 17 5
13 3 -3 4 -12 1 -19z m1153 18 c0 -3 -4 -8 -10 -11 -5 -3 -10 -1 -10 4 0 6 5
11 10 11 6 0 10 -2 10 -4z m617 -33 c-3 -10 -5 -4 -5 12 0 17 2 24 5 18 2 -7
2 -21 0 -30z m81 1 c-3 -14 -5 -12 -10 9 -3 19 -2 25 4 19 6 -6 8 -18 6 -28z
m49 14 c-3 -8 -6 -5 -6 6 -1 11 2 17 5 13 3 -3 4 -12 1 -19z m40 -15 c-3 -10
-5 -4 -5 12 0 17 2 24 5 18 2 -7 2 -21 0 -30z m-2617 2 c0 -14 -2 -25 -4 -25
-2 0 -6 11 -8 25 -3 14 -1 25 3 25 5 0 9 -11 9 -25z m70 0 c0 -14 -2 -25 -4
-25 -2 0 -6 11 -8 25 -3 14 -1 25 3 25 5 0 9 -11 9 -25z m147 -12 c-3 -10 -5
-4 -5 12 0 17 2 24 5 18 2 -7 2 -21 0 -30z m70 0 c-3 -10 -5 -4 -5 12 0 17 2
24 5 18 2 -7 2 -21 0 -30z m153 12 c0 -14 -2 -25 -4 -25 -2 0 -6 11 -8 25 -3
14 -1 25 3 25 5 0 9 -11 9 -25z m68 -11 c-3 -14 -5 -12 -10 9 -3 19 -2 25 4
19 6 -6 8 -18 6 -28z m1349 4 c-3 -7 -5 -2 -5 12 0 14 2 19 5 13 2 -7 2 -19 0
-25z m190 0 c-3 -7 -5 -2 -5 12 0 14 2 19 5 13 2 -7 2 -19 0 -25z m40 0 c-3
-7 -5 -2 -5 12 0 14 2 19 5 13 2 -7 2 -19 0 -25z m53 0 c0 -5 -7 -3 -15 6 -8
8 -15 18 -15 22 0 3 7 1 15 -6 8 -7 15 -17 15 -22z m623 12 c3 -11 1 -18 -4
-14 -5 3 -9 12 -9 20 0 20 7 17 13 -6z m64 -12 c-3 -7 -5 -2 -5 12 0 14 2 19
5 13 2 -7 2 -19 0 -25z m40 10 c-3 -8 -6 -5 -6 6 -1 11 2 17 5 13 3 -3 4 -12
1 -19z m-2974 -8 c3 -11 1 -18 -4 -14 -5 3 -9 12 -9 20 0 20 7 17 13 -6z m45
-5 c-3 -3 -9 2 -12 12 -6 14 -5 15 5 6 7 -7 10 -15 7 -18z m99 -7 c-3 -7 -5
-2 -5 12 0 14 2 19 5 13 2 -7 2 -19 0 -25z m553 17 c11 -13 10 -14 -4 -9 -9 3
-16 10 -16 15 0 13 6 11 20 -6z m1023 -5 c3 -11 1 -18 -4 -14 -5 3 -9 12 -9
20 0 20 7 17 13 -6z m107 -13 c0 -5 -4 -5 -10 -2 -5 3 -10 14 -10 23 0 15 2
15 10 2 5 -8 10 -19 10 -23z m1178 8 c-3 -3 -9 2 -12 12 -6 14 -5 15 5 6 7 -7
10 -15 7 -18z m-1721 -7 c-3 -8 -6 -5 -6 6 -1 11 2 17 5 13 3 -3 4 -12 1 -19z
m200 0 c-3 -8 -6 -5 -6 6 -1 11 2 17 5 13 3 -3 4 -12 1 -19z m533 18 c0 -3 -4
-8 -10 -11 -5 -3 -10 -1 -10 4 0 6 5 11 10 11 6 0 10 -2 10 -4z m830 -22 c0
-2 -11 -4 -25 -4 -14 0 -25 4 -25 9 0 4 11 6 25 3 14 -2 25 -6 25 -8z m-1293
-166 c-2 -13 -4 -5 -4 17 -1 22 1 32 4 23 2 -10 2 -28 0 -40z m-390 -5 c-3
-10 -5 -2 -5 17 0 19 2 27 5 18 2 -10 2 -26 0 -35z m70 -5 c-3 -7 -5 -2 -5 12
0 14 2 19 5 13 2 -7 2 -19 0 -25z m30 0 c-3 -7 -5 -2 -5 12 0 14 2 19 5 13 2
-7 2 -19 0 -25z m140 0 c-3 -7 -5 -2 -5 12 0 14 2 19 5 13 2 -7 2 -19 0 -25z
m30 0 c-3 -8 -6 -5 -6 6 -1 11 2 17 5 13 3 -3 4 -12 1 -19z m177 6 c3 -8 2
-12 -4 -9 -6 3 -10 10 -10 16 0 14 7 11 14 -7z m90 0 c3 -8 2 -12 -4 -9 -6 3
-10 10 -10 16 0 14 7 11 14 -7z m-381 -21 c-7 -2 -19 -2 -25 0 -7 3 -2 5 12 5
14 0 19 -2 13 -5z"/>
<path d="M2703 1044 c-22 -23 -25 -32 -21 -80 6 -69 35 -104 88 -104 52 0 80
32 80 94 0 76 -30 115 -88 116 -22 0 -41 -8 -59 -26z"/>
<path d="M1511 1000 c-15 -46 -14 -50 14 -50 29 0 30 6 11 50 l-13 32 -12 -32z"/>
</g>
</svg>
